<svg xmlns="http://www.w3.org/2000/svg" width="512" height="512">
    <!--
        Remote Numpad - a numpad application on Android for PCs lacking one.
        Copyright (C) 2016-2022 Guillaume Payet

        This program is free software: you can redistribute it and/or modify
        it under the terms of the GNU General Public License as published by
        the Free Software Foundation, either version 3 of the License, or
        (at your option) any later version.

        This program is distributed in the hope that it will be useful,
        but WITHOUT ANY WARRANTY; without even the implied warranty of
        MERCHANTABILITY or FITNESS FOR A PARTICULAR PURPOSE.  See the
        GNU General Public License for more details.

        You should have received a copy of the GNU General Public License
        along with this program.  If not, see <https://www.gnu.org/licenses/>.
    -->
    <title>Remote Numpad Logo</title>

    <rect fill="none" width="512" height="512" />

    <rect fill="white" x="51" y="3" width="410" height="506" rx="32" />

    <rect fill="#436AAA" x="77" y="29" width="70" height="70" rx="16" />
    <rect fill="#436AAA" x="173" y="29" width="70" height="70" rx="16" />
    <rect fill="#436AAA" x="269" y="29" width="70" height="70" rx="16" />

    <rect fill="#436AAA" x="77" y="125" width="70" height="70" rx="16" />
    <rect fill="#436AAA" x="173" y="125" width="70" height="70" rx="16" />
    <rect fill="#436AAA" x="269" y="125" width="70" height="70" rx="16" />

    <rect fill="#436AAA" x="77" y="221" width="70" height="70" rx="16" />
    <rect fill="#436AAA" x="173" y="221" width="70" height="70" rx="16" />
    <rect fill="#436AAA" x="269" y="221" width="70" height="70" rx="16" />

    <rect fill="#436AAA" x="77" y="317" width="70" height="70" rx="16" />
    <rect fill="#436AAA" x="173" y="317" width="70" height="70" rx="16" />
    <rect fill="#436AAA" x="269" y="317" width="70" height="70" rx="16" />
    
    <rect fill="#436AAA" x="365" y="29" width="70" height="70" rx="16" />
    <rect fill="#436AAA" x="365" y="125" width="70" height="166" rx="16" />
    <rect fill="#436AAA" x="365" y="317" width="70" height="166" rx="16" />

    <rect fill="#436AAA" x="77" y="413" width="166" height="70" rx="16" />
    <rect fill="#436AAA" x="269" y="413" width="70" height="70" rx="16" />
</svg>